<svg xmlns="http://www.w3.org/2000/svg" class="sprite sprite-scholar sprite-resting" viewBox="0 0 210 240" width="840" height="957.5999999999999" aria-hidden="true"><defs><linearGradient id="mv2-1cape" x1="0" y1="0" x2="1" y2="1"><stop stop-color="#c5b7ef"/><stop offset=".32" stop-color="#71619a"/><stop offset="1" stop-color="#342e58"/></linearGradient><linearGradient id="mv2-1robe" x1="0" y1="0" x2="1" y2=".5"><stop stop-color="#c5b7ef"/><stop offset=".45" stop-color="#71619a"/><stop offset="1" stop-color="#342e58"/></linearGradient><linearGradient id="mv2-1hat" x2=".2" y2="1"><stop stop-color="#c5b7ef"/><stop offset=".45" stop-color="#71619a"/><stop offset="1" stop-color="#342e58"/></linearGradient><radialGradient id="mv2-1skin" cx=".42" cy=".25" r=".9"><stop stop-color="#fff0d5"/><stop offset=".7" stop-color="#e8c5ab"/><stop offset="1" stop-color="#c4948a"/></radialGradient><linearGradient id="mv2-1hair" x2="1" y2=".2"><stop stop-color="#eeedf5"/><stop offset=".5" stop-color="#cec8e1"/><stop offset="1" stop-color="#9c9bbd"/></linearGradient><linearGradient id="mv2-1paper" x2=".5" y2="1"><stop stop-color="#fff0cf"/><stop offset="1" stop-color="#d4c095"/></linearGradient><linearGradient id="mv2-1metal" x2="1" y2=".7"><stop stop-color="#d4d8d7"/><stop offset=".3" stop-color="#9cabb8"/><stop offset=".5" stop-color="#c8cfce"/><stop offset=".56" stop-color="#7d8b9e"/><stop offset="1" stop-color="#46586e"/></linearGradient><linearGradient id="mv2-1blade" x2="1" y2="0"><stop stop-color="#dce7e4"/><stop offset=".49" stop-color="#a0bbca"/><stop offset=".51" stop-color="#f4f4db"/><stop offset="1" stop-color="#6589a0"/></linearGradient><radialGradient id="mv2-1fur" cx=".35" cy=".2" r="1"><stop stop-color="#e2e0db"/><stop offset=".55" stop-color="#9faab7"/><stop offset="1" stop-color="#67778b"/></radialGradient><linearGradient id="mv2-1fox" x2="1" y2="1"><stop stop-color="#e8ba83"/><stop offset=".6" stop-color="#bb885f"/><stop offset="1" stop-color="#875e49"/></linearGradient><linearGradient id="mv2-1feather" x2=".2" y2="1"><stop stop-color="#ccdeea"/><stop offset="1" stop-color="#7b94b6"/></linearGradient><linearGradient id="mv2-1beak" x2="1" y2="1"><stop stop-color="#f0d28e"/><stop offset="1" stop-color="#b29469"/></linearGradient><linearGradient id="mv2-1wing" x2="1" y2="1"><stop stop-color="#d8e9ef" stop-opacity=".7"/><stop offset=".45" stop-color="#e3b4df" stop-opacity=".45"/><stop offset="1" stop-color="#899ac7" stop-opacity=".25"/></linearGradient><linearGradient id="mv2-1crystal" x2="1" y2="1"><stop stop-color="#fffaff"/><stop offset=".35" stop-color="#b6d6e6"/><stop offset="1" stop-color="#8277bb"/></linearGradient><radialGradient id="mv2-1orb"><stop stop-color="#ecfff2" stop-opacity=".9"/><stop offset=".4" stop-color="#99d2dc" stop-opacity=".5"/><stop offset="1" stop-color="#617ba9" stop-opacity=".15"/></radialGradient><radialGradient id="mv2-1aura"><stop stop-color="#eee5ff" stop-opacity=".32"/><stop offset="1" stop-color="#eee5ff" stop-opacity="0"/></radialGradient></defs><ellipse cx="100" cy="230" rx="59" ry="7" fill="#091a244d" /><g class="sprite-body"><path d="M70 71Q50 112 64 168l29-10V65M126 73q29 38 7 92l-21-10V68" fill="url(#mv2-1hair)" /><path d="M66 97q-8 35 7 54m54-52q13 28-4 49" fill="none" stroke="#aca7c5" stroke-width="1.3" stroke-linecap="round" stroke-linejoin="round" /><path d="M71 117Q53 126 41 192Q80 220 103 207Q130 225 153 192L129 118Z" fill="url(#mv2-1cape)" stroke="#342e58" stroke-width="2"/><path d="M83 119L74 189L95 210L119 197L117 119Z" fill="url(#mv2-1robe)" /><path d="M78 178q20 10 45-1" fill="none" stroke="#c5b7ef" stroke-width="2" stroke-linecap="round" stroke-linejoin="round" /><path d="M74 187q22 14 48 6" fill="none" stroke="#c5b7ef" stroke-width="1.3" stroke-linecap="round" stroke-linejoin="round" /><path d="M48 189q10-36 25-62m63 61q-3-34-12-54" fill="none" stroke="#dcc999" stroke-width="1.05" stroke-linecap="round" stroke-linejoin="round" stroke-dasharray="1 4"/><path d="M82 123L99 148L118 124L109 157L96 163L86 143Z" fill="#342e58" /><path d="M83 124l16 23 18-23" fill="none" stroke="#eee5ff" stroke-width="1.5" stroke-linecap="round" stroke-linejoin="round" /><path d="M99 140l3.9000000000000004 6l-3.9000000000000004 6l-3.9000000000000004-6Z" fill="#cbd8e6" /><path d="M99 140v12m-3.9000000000000004-6h7.800000000000001" fill="none" stroke="#ffffff77" stroke-width="0.6" stroke-linecap="round" stroke-linejoin="round" /><path d="M83 204L81 221Q73 227 70 221l7-17Z" fill="#554b65" /><path d="M114 204l9 14q1 6-10 4l-7-18Z" fill="#554b65" /><ellipse cx="100" cy="81" rx="30" ry="32" fill="url(#mv2-1skin)" /><ellipse cx="77" cy="96" rx="6" ry="2.8" fill="#d7969680" /><ellipse cx="123" cy="96" rx="6" ry="2.8" fill="#d7969680" /><path d="M98 95q-1 3 3 3" fill="none" stroke="#ba8d83" stroke-width="0.8" stroke-linecap="round" stroke-linejoin="round" /><path d="M95 104q6 4 11-1" fill="none" stroke="#936d74" stroke-width="1.2" stroke-linecap="round" stroke-linejoin="round" /><g class="character-eyes"><ellipse cx="84" cy="85" rx="6.2" ry="8.3" fill="#fcf5e6" /><ellipse cx="84.5" cy="86" rx="4.7" ry="6.9" fill="#8784b8" /><ellipse cx="84.5" cy="87" rx="2.3" ry="5" fill="#253143" /><circle cx="85.8" cy="83" r="1.7" fill="#fff" /><circle cx="83" cy="89" r="0.7" fill="#eff8fd" /><path d="M78 80Q84 75 90 80" fill="none" stroke="#414054" stroke-width="1.6" stroke-linecap="round" stroke-linejoin="round" /><ellipse cx="116" cy="85" rx="6.2" ry="8.3" fill="#fcf5e6" /><ellipse cx="116.5" cy="86" rx="4.7" ry="6.9" fill="#8784b8" /><ellipse cx="116.5" cy="87" rx="2.3" ry="5" fill="#253143" /><circle cx="117.8" cy="83" r="1.7" fill="#fff" /><circle cx="115" cy="89" r="0.7" fill="#eff8fd" /><path d="M110 80Q116 75 122 80" fill="none" stroke="#414054" stroke-width="1.6" stroke-linecap="round" stroke-linejoin="round" /></g><path d="M69 71Q69 39 100 45Q135 47 131 79L119 63Q109 76 107 64L102 52Q88 81 90 60L81 79Z" fill="url(#mv2-1hair)" /><path d="M81 61q10-17 20-12m18 4q9 9 10 17" fill="none" stroke="#f4eef5" stroke-width="1.3" stroke-linecap="round" stroke-linejoin="round" /><path d="M69 68Q74 30 107 14Q94 34 120 40L135 69Z" fill="url(#mv2-1hat)" stroke="#342e58" stroke-width="1.7"/><path d="M71 59Q98 54 129 58l6 11-68 6Z" fill="#c5b7ef" /><path d="M74 61q23-5 53 0" fill="none" stroke="#eee5ff" stroke-width="1" stroke-linecap="round" stroke-linejoin="round" /><path d="M48 72Q92 57 150 67Q157 76 143 81Q97 89 53 80Z" fill="url(#mv2-1hat)" stroke="#342e58" stroke-width="1.7"/><path d="M52 74q42-8 93-3" fill="none" stroke="#c5b7ef" stroke-width="1.4" stroke-linecap="round" stroke-linejoin="round" /><path d="M104 32a9 9 0 1 0 6 15a7 7 0 0 1-6-15" fill="#eee5ff" /><path d="M121 43Q122 45 124 46Q122 47 121 49Q120 47 118 46Q120 45 121 43" fill="#f3dfa7"/><path d="M75 54q6-13 17-19" fill="none" stroke="#eee5ff" stroke-width="1.05" stroke-linecap="round" stroke-linejoin="round" stroke-dasharray="1 4"/><path d="M73 65.5l2.275 3.5l-2.275 3.5l-2.275-3.5Z" fill="#e8ca94" /><path d="M73 65.5v7m-2.275-3.5h4.55" fill="none" stroke="#ffffff77" stroke-width="0.6" stroke-linecap="round" stroke-linejoin="round" /><path d="M154 204l10-143" fill="none" stroke="#846d58" stroke-width="5" stroke-linecap="round" stroke-linejoin="round" /><path d="M155 204l10-137" fill="none" stroke="#d4c4a0" stroke-width="1.4" stroke-linecap="round" stroke-linejoin="round" /><path d="M162 40L175 57L163 79L153 58Z" fill="url(#mv2-1crystal)" stroke="#b8b8de" stroke-width="1.5"/><path d="M162 42l1 35m-9-19h19" fill="none" stroke="#e4efff88" stroke-width="1.1" stroke-linecap="round" stroke-linejoin="round" /><path d="M156 77q8 5 14-1m-14 4q8 5 13 0" fill="none" stroke="#eee5ff" stroke-width="2" stroke-linecap="round" stroke-linejoin="round" /><circle cx="163" cy="58" r="27" fill="url(#mv2-1aura)" /><path d="M184 39Q185 42 188 43Q185 44 184 47Q183 44 180 43Q183 42 184 39" fill="#f3dfa7"/><path d="M147 39Q148 40 149 41Q148 42 147 43Q146 42 145 41Q146 40 147 39" fill="#f3dfa7"/><path d="M49 142L82 136L113 151L108 183L76 172L47 177Z" fill="#9d776f" stroke="#453e51" stroke-width="1.5"/><path d="M51 139L82 134L111 147L106 177L78 168L50 173Z" fill="url(#mv2-1paper)" /><path d="M82 135l-4 32" fill="none" stroke="#b69b7a" stroke-width="1.5" stroke-linecap="round" stroke-linejoin="round" /><path d="M55 145l20-3m-21 9l17-3m-17 10l18-4m13-10l18 7m-19 0l16 6m-17 0l14 5" fill="none" stroke="#b1977c" stroke-width="0.8" stroke-linecap="round" stroke-linejoin="round" /><path d="M71 171l-1 17 8-5 4 4-1-14Z" fill="#b089a9" /><ellipse cx="49" cy="156" rx="7.5" ry="10" fill="url(#mv2-1skin)" transform="rotate(-12 49 156)"/><ellipse cx="109" cy="164" rx="7.2" ry="9.5" fill="url(#mv2-1skin)" transform="rotate(20 109 164)"/></g></svg>